<svg t="1708595934660" class="icon" viewBox="0 0 1024 1024" version="1.1" xmlns="http://www.w3.org/2000/svg" p-id="1073" width="200" height="200"><path d="M758 394c0-135.72-109.91-245.77-245.58-246-135-0.22-245.6 109.48-246.42 244.49a245.66 245.66 0 0 0 101 200.26 34.36 34.36 0 0 1 14 27.8V662a22.38 22.38 0 0 0 26.57 22l217.25-41.46a22.37 22.37 0 0 0 18.18-22 34.51 34.51 0 0 1 14.14-27.86A245.67 245.67 0 0 0 758 394z" fill="#C256F4" p-id="1074"></path><path d="M512.41 865.49a94.89 94.89 0 0 1-85.94-55 40.78 40.78 0 0 1 29.42-57.09l102.6-19.58a40.76 40.76 0 0 1 37.27 12 40.26 40.26 0 0 1 11.11 30.08v1a94.8 94.8 0 0 1-91.26 88.63h-3.15z" fill="#C142EA" p-id="1075"></path><path d="M566.18 753a20.77 20.77 0 0 1 20.72 21.78v0.76a74.81 74.81 0 0 1-72 69.87h-2.5a74.57 74.57 0 0 1-67.77-43.42 20.78 20.78 0 0 1 15-29.08l102.6-19.58a21.34 21.34 0 0 1 3.94-0.37m0-40a61.14 61.14 0 0 0-11.44 1.08L452.14 733.7a60.78 60.78 0 0 0-43.83 85.1 114.54 114.54 0 0 0 104.1 66.69c1.26 0 2.54 0 3.8-0.06a114.8 114.8 0 0 0 110.57-107.38l0.06-1.16A60.75 60.75 0 0 0 566.18 713z" fill="#FFFFFF" p-id="1076"></path><path d="M624.64 719.5l-216.81 41.38A22.59 22.59 0 0 1 381 738.69a22.59 22.59 0 0 1 18.36-22.19l216.81-41.38A22.59 22.59 0 0 1 643 697.31a22.59 22.59 0 0 1-18.36 22.19z" fill="#C256F4" p-id="1077"></path><path d="M688 404m-32 0a32 32 0 1 0 64 0 32 32 0 1 0-64 0Z" fill="#FFFFFF" p-id="1078"></path><path d="M663 345.13a30 30 0 0 1-26.47-15.83 143.71 143.71 0 0 0-173.27-68 30 30 0 0 1-19.52-56.74 203.74 203.74 0 0 1 245.67 96.41A30 30 0 0 1 663 345.13z" fill="#FFFFFF" p-id="1079"></path></svg>
