<svg t="1709297447724" class="icon" viewBox="0 0 1024 1024" version="1.1" xmlns="http://www.w3.org/2000/svg" p-id="15819" width="200" height="200"><path d="M116.363636 93.090909c0-39.563636 30.254545-69.818182 69.818182-69.818182h442.181818v209.454546-209.454546H186.181818C146.618182 23.272727 116.363636 53.527273 116.363636 93.090909v837.818182V93.090909z m523.636364-69.818182L907.636364 290.909091 640 23.272727z" fill="#666666" p-id="15820"></path><path d="M651.636364 0H186.181818C134.981818 0 93.090909 41.890909 93.090909 93.090909v837.818182c0 51.2 41.890909 93.090909 93.090909 93.090909h651.636364c51.2 0 93.090909-41.890909 93.090909-93.090909V279.272727L651.636364 0z m69.818181 744.727273H302.545455c-13.963636 0-23.272727-9.309091-23.272728-23.272728s9.309091-23.272727 23.272728-23.272727h418.90909c13.963636 0 23.272727 9.309091 23.272728 23.272727s-9.309091 23.272727-23.272728 23.272728z m0-162.909091H302.545455c-13.963636 0-23.272727-9.309091-23.272728-23.272727s9.309091-23.272727 23.272728-23.272728h418.90909c13.963636 0 23.272727 9.309091 23.272728 23.272728s-9.309091 23.272727-23.272728 23.272727z m-23.272727-302.545455c-25.6 0-46.545455-20.945455-46.545454-46.545454V67.490909l211.781818 211.781818H698.181818z" fill="#666666" p-id="15821"></path></svg>
