<svg t="1707028259851" class="icon" viewBox="0 0 1024 1024" version="1.1" xmlns="http://www.w3.org/2000/svg" p-id="1134" width="200" height="200"><path d="M901.850593 926.476283a48.761858 48.761858 0 0 1-48.761859 48.761859H170.422718a48.761858 48.761858 0 0 1-48.761858-48.761859V48.762834a48.761858 48.761858 0 0 1 48.761858-48.761859h418.864363a48.761858 48.761858 0 0 1 34.620919 14.140939l263.801654 263.801654a48.761858 48.761858 0 0 1 14.140939 34.620919V926.476283z" fill="#EBECF0" p-id="1135"></path><path d="M901.850593 926.476283v48.761859a48.761858 48.761858 0 0 1-48.761859 48.761858H170.422718a48.761858 48.761858 0 0 1-48.761858-48.761858v-48.761859a48.761858 48.761858 0 0 0 48.761858 48.761859h682.666016a48.761858 48.761858 0 0 0 48.761859-48.761859z" fill="#C1C7D0" p-id="1136"></path><path d="M24.137143 536.381417h975.237166v243.809291a48.761858 48.761858 0 0 1-48.761858 48.761859H72.899001a48.761858 48.761858 0 0 1-48.761858-48.761859v-243.809291z" fill="#0747A6" p-id="1137"></path><path d="M121.66086 536.381417V438.8577l-97.523717 97.523717h97.523717zM901.850593 536.381417l0.975237-97.523717 97.036098 97.523717H901.850593z" fill="#063266" p-id="1138"></path><path d="M236.251227 592.457554H311.832107a71.192313 71.192313 0 0 1 56.563756 24.868548A97.523717 97.523717 0 0 1 389.85108 682.666992a107.763707 107.763707 0 0 1-20.47998 67.778983 69.729457 69.729457 0 0 1-58.51423 26.331403H236.251227zM267.946434 747.032645h41.44758a41.935198 41.935198 0 0 0 35.596157-15.603795 73.142787 73.142787 0 0 0 12.678083-48.761858 68.75422 68.75422 0 0 0-13.653321-45.348528 44.86091 44.86091 0 0 0-36.571393-16.091414H267.946434zM511.755726 585.143275a83.870396 83.870396 0 0 1 65.34089 26.819022 97.523717 97.523717 0 0 1 23.893311 70.704695 103.37514 103.37514 0 0 1-24.380929 70.704694A82.407541 82.407541 0 0 1 511.755726 780.190708a83.870396 83.870396 0 0 1-65.34089-27.30664A100.937047 100.937047 0 0 1 421.546288 682.666992a100.449428 100.449428 0 0 1 24.868548-70.217076A83.382778 83.382778 0 0 1 511.755726 585.143275z m0 163.839844a52.662807 52.662807 0 0 0 42.422817-18.041888 73.142787 73.142787 0 0 0 15.116176-48.761858 70.217076 70.217076 0 0 0-16.091413-48.761858 53.638044 53.638044 0 0 0-41.935199-18.041888 52.662807 52.662807 0 0 0-41.935198 18.041888 71.192313 71.192313 0 0 0-15.603794 48.761858 70.704695 70.704695 0 0 0 16.091413 48.761858 53.150426 53.150426 0 0 0 41.935198 18.529507zM787.260226 701.196498a155.062709 155.062709 0 0 1-28.281878 58.026611 69.241839 69.241839 0 0 1-56.076137 20.967599 74.605643 74.605643 0 0 1-59.977086-25.356166 106.300851 106.300851 0 0 1-22.430455-72.16755 104.837995 104.837995 0 0 1 22.918074-71.679932A78.506592 78.506592 0 0 1 706.803159 585.143275q57.051374 0 76.556118 67.291365h-32.670445a48.761858 48.761858 0 0 0-43.885673-35.596157 48.761858 48.761858 0 0 0-39.009486 17.06665 69.729457 69.729457 0 0 0-14.628558 48.761859q0 66.803746 51.68757 66.803746a40.472342 40.472342 0 0 0 30.719971-11.215228 85.820871 85.820871 0 0 0 17.554269-35.596156z" fill="#FFFFFF" p-id="1139"></path><path d="M905.263923 312.564487v6.82666h-264.289272a48.761858 48.761858 0 0 1-48.761859-48.761858V0.000975a48.761858 48.761858 0 0 1 34.62092 14.140939l264.289272 263.801654a48.761858 48.761858 0 0 1 14.140939 34.620919z" fill="#C1C7D0" p-id="1140"></path></svg>
