<svg t="1707028235034" class="icon" viewBox="0 0 1024 1024" version="1.1" xmlns="http://www.w3.org/2000/svg" p-id="979" width="200" height="200"><path d="M901.850593 926.476283a48.761858 48.761858 0 0 1-48.761859 48.761859H170.422718a48.761858 48.761858 0 0 1-48.761858-48.761859V48.762834a48.761858 48.761858 0 0 1 48.761858-48.761859h418.864363a48.761858 48.761858 0 0 1 34.620919 14.140939l263.801654 263.801654a48.761858 48.761858 0 0 1 14.140939 34.620919V926.476283z" fill="#EBECF0" p-id="980"></path><path d="M901.850593 926.476283v48.761859a48.761858 48.761858 0 0 1-48.761859 48.761858H170.422718a48.761858 48.761858 0 0 1-48.761858-48.761858v-48.761859a48.761858 48.761858 0 0 0 48.761858 48.761859h682.666016a48.761858 48.761858 0 0 0 48.761859-48.761859z" fill="#C1C7D0" p-id="981"></path><path d="M24.137143 536.381417h975.237166v243.809291a48.761858 48.761858 0 0 1-48.761858 48.761859H72.899001a48.761858 48.761858 0 0 1-48.761858-48.761859v-243.809291z" fill="#36B37E" p-id="982"></path><path d="M121.66086 536.381417V438.8577l-97.523717 97.523717h97.523717zM901.850593 536.381417l0.975237-97.523717 97.036098 97.523717H901.850593z" fill="#00875A" p-id="983"></path><path d="M375.710141 598.796595a59.977086 59.977086 0 0 1 22.430455 45.348529H365.470151a40.959961 40.959961 0 0 0-14.628557-24.868548 48.761858 48.761858 0 0 0-31.20759-7.801897 57.538993 57.538993 0 0 0-27.30664 4.876185 19.992362 19.992362 0 0 0-11.702846 19.504744 21.455218 21.455218 0 0 0 13.165701 19.017125 264.776891 264.776891 0 0 0 32.182827 11.702845 292.57115 292.57115 0 0 1 48.761858 18.529507 44.86091 44.86091 0 0 1 24.380929 40.472342 48.761858 48.761858 0 0 1-19.504743 39.984724 94.598005 94.598005 0 0 1-55.588518 14.628557 94.110387 94.110387 0 0 1-54.125663-13.165701 63.878034 63.878034 0 0 1-25.843785-52.175189h33.645682a43.885672 43.885672 0 0 0 15.116176 30.719971 59.001849 59.001849 0 0 0 34.133301 8.289516 66.803746 66.803746 0 0 0 32.670445-6.82666 21.455218 21.455218 0 0 0 12.190465-18.529506 26.819022 26.819022 0 0 0-17.554269-23.893311 354.49871 354.49871 0 0 0-37.546631-13.165702 306.22447 306.22447 0 0 1-42.910436-15.603794 41.44758 41.44758 0 0 1-21.455217-38.03425 44.373291 44.373291 0 0 1 20.967599-39.009487 84.845633 84.845633 0 0 1 48.761858-13.65332 85.333252 85.333252 0 0 1 53.638044 13.65332z" fill="#FFFFFF" p-id="984"></path><path d="M901.850593 312.564487v6.82666h-263.801654a48.761858 48.761858 0 0 1-48.761858-48.761858V0.000975a48.761858 48.761858 0 0 1 34.620919 14.140939l264.289272 263.801654a48.761858 48.761858 0 0 1 13.653321 34.620919z" fill="#C1C7D0" p-id="985"></path></svg>
