<svg t="1707224367974" class="icon" viewBox="0 0 1024 1024" version="1.1" xmlns="http://www.w3.org/2000/svg" p-id="5957" width="200" height="200"><path d="M895.8 592.1a32.2 32.1 0 1 0 64.4 0 32.2 32.1 0 1 0-64.4 0Z" fill="#ffffff" p-id="5958"></path><path d="M928 687.9c-17.8 0-32.2 14.4-32.2 32.1v80.7c0 35.3-28.7 64-64 64H192.5c-35.3 0-64-28.7-64-64V225c0-35.3 28.7-64 64-64H415l82.7 143.3c6.6 11.4 19.2 17.2 31.5 15.8h302.5c35.3 0 64 28.7 64 64v80c0 17.7 14.4 32.1 32.2 32.1s32.2-14.4 32.2-32.1c0-0.8 0-1.6-0.1-2.4v-77.5C960 329 925.1 282 876.1 264v-1c0-68.2-55.8-124-124-124H476.2l-14.8-25.7c-7.4-12.9-18-16.2-27.3-16l-0.1-0.1H192.1c-70.7 0-128 57.3-128 128v574.1c0 70.7 57.3 128 128 128h640c70.7 0 128-57.3 128-128v-76.9c0.1-0.8 0.1-1.6 0.1-2.4 0-17.7-14.4-32.1-32.2-32.1zM747.1 202.8c31.6 0 58 23.2 63.1 53.4H543.9l-30.8-53.4h234z" fill="#ffffff" p-id="5959"></path></svg>
