<svg t="1707028321531" class="icon" viewBox="0 0 1024 1024" version="1.1" xmlns="http://www.w3.org/2000/svg" p-id="1599" width="200" height="200"><path d="M901.850593 926.476283a48.761858 48.761858 0 0 1-48.761859 48.761859H170.422718a48.761858 48.761858 0 0 1-48.761858-48.761859V48.762834a48.761858 48.761858 0 0 1 48.761858-48.761859h418.864363a48.761858 48.761858 0 0 1 34.620919 14.140939l263.801654 263.801654a48.761858 48.761858 0 0 1 14.140939 34.620919V926.476283z" fill="#EBECF0" p-id="1600"></path><path d="M901.850593 926.476283v48.761859a48.761858 48.761858 0 0 1-48.761859 48.761858H170.422718a48.761858 48.761858 0 0 1-48.761858-48.761858v-48.761859a48.761858 48.761858 0 0 0 48.761858 48.761859h682.666016a48.761858 48.761858 0 0 0 48.761859-48.761859z" fill="#C1C7D0" p-id="1601"></path><path d="M24.137143 536.381417h975.237166v243.809291a48.761858 48.761858 0 0 1-48.761858 48.761859H72.899001a48.761858 48.761858 0 0 1-48.761858-48.761859v-243.809291z" fill="#FFAB00" p-id="1602"></path><path d="M121.66086 536.381417V438.8577l-97.523717 97.523717h97.523717zM901.850593 536.381417l0.975237-97.523717 97.036098 97.523717H901.850593z" fill="#FF8B00" p-id="1603"></path><path d="M770.681194 750.933593a120.44179 120.44179 0 0 1-78.506592 29.257115 93.622768 93.622768 0 0 1-97.523717-97.523716 97.523717 97.523717 0 0 1 97.523717-97.523717 101.912284 101.912284 0 0 1 72.655169 25.356166l-20.967599 24.868548a74.118025 74.118025 0 0 0-52.662807-19.992362A63.878034 63.878034 0 0 0 628.784186 682.666992a62.902797 62.902797 0 0 0 63.878034 67.778983 77.043736 77.043736 0 0 0 45.348529-14.140939v-35.108538h-34.62092a7.314279 7.314279 0 0 1-7.314278-7.314279v-14.628557a7.314279 7.314279 0 0 1 7.314278-7.314279h59.489467a7.314279 7.314279 0 0 1 7.314279 7.314279z m-235.519776-97.523716c0-22.430455-16.091413-34.133301-40.472342-34.133301h-39.009487v67.778983h38.521868c24.868548-0.487619 40.472342-14.140939 40.472342-34.620919z m33.645682 0a66.316127 66.316127 0 0 1-75.58088 64.853271h-37.546631v53.638044a7.314279 7.314279 0 0 1-7.314279 7.314279h-18.529506a7.314279 7.314279 0 0 1-7.314279-7.314279v-176.517927a7.314279 7.314279 0 0 1 7.314279-7.314278H497.127169a63.390416 63.390416 0 0 1 71.679931 63.390415z m-191.634103 59.489467A59.489467 59.489467 0 0 1 313.782581 780.190708a71.192313 71.192313 0 0 1-60.464704-30.232352l21.942836-22.430455a48.761858 48.761858 0 0 0 38.03425 21.942837c17.554269 0 29.744734-11.702846 29.744733-37.059013v-117.02846a7.314279 7.314279 0 0 1 7.314279-7.314278h19.504743a7.314279 7.314279 0 0 1 7.314279 7.314278z" fill="#FFFFFF" p-id="1604"></path><path d="M901.850593 312.564487v6.82666h-263.801654a48.761858 48.761858 0 0 1-48.761858-48.761858V0.000975a48.761858 48.761858 0 0 1 34.620919 14.140939l264.289272 263.801654a48.761858 48.761858 0 0 1 13.653321 34.620919z" fill="#C1C7D0" p-id="1605"></path></svg>
