<svg t="1705473710125" class="icon" viewBox="0 0 1024 1024" version="1.1" xmlns="http://www.w3.org/2000/svg"
     p-id="12412" width="200" height="200">
    <path d="M842.048 202.88c-99.776-99.84-262.208-99.84-362.048 0L202.816 480.064c-99.84 99.84-99.84 262.272 0 362.048 97.28 97.28 253.632 99.008 353.92 6.656 1.408-1.024 3.072-1.536 4.352-2.88l3.648-3.648c0.064-0.064 0.064-0.064 0.128-0.128 0 0 0-0.064 0.064-0.064l108.608-108.544c60.992-60.992 60.992-160.256 0-221.312-60.992-60.992-160.256-60.992-221.312 0L366.144 598.4c-12.48 12.48-12.48 32.768 0 45.248s32.768 12.48 45.248 0L497.536 557.44c36.032-36.032 94.72-36.032 130.752 0 35.968 36.032 35.968 94.656 0 130.752l-108.672 108.608 0 0c-74.816 74.88-196.672 74.88-271.488 0-74.88-74.88-74.88-196.672 0-271.552l277.184-277.184c74.88-74.88 196.608-74.88 271.488 0 74.88 74.816 74.88 196.672 0 271.552-12.48 12.48-12.48 32.704 0 45.248 12.48 12.48 32.768 12.48 45.248 0C941.952 465.152 941.952 302.656 842.048 202.88z"
          fill="#ffffff" p-id="12413"></path>
</svg>
