<svg t="1708599026911" class="icon" viewBox="0 0 1024 1024" version="1.1" xmlns="http://www.w3.org/2000/svg" p-id="1564" width="200" height="200"><path d="M358.66 461.32m-173.37 0a173.37 173.37 0 1 0 346.74 0 173.37 173.37 0 1 0-346.74 0Z" fill="#02A5FD" p-id="1565"></path><path d="M734.72 342.45a207.85 207.85 0 0 0-185.45-113.89c-114.79 0-207.85 93.06-207.85 207.85v0.19a12.88 12.88 0 0 1-16.19 12.54 178.18 178.18 0 1 0-46.07 350.3h407.23c127.11 0 231.67-102 232.6-229.11 0.83-112.33-78.56-206.23-184.27-227.88z" fill="#008CE2" p-id="1566"></path><path d="M286.82 559.98m64.18 0l317.04 0q64.18 0 64.18 64.18l0-0.01q0 64.18-64.18 64.18l-317.04 0q-64.18 0-64.18-64.18l0 0.01q0-64.18 64.18-64.18Z" fill="#64C8FF" p-id="1567"></path><path d="M666.61 624.63m-27.3 0a27.3 27.3 0 1 0 54.6 0 27.3 27.3 0 1 0-54.6 0Z" fill="#FFFFFF" p-id="1568"></path><path d="M327.43 597.33m27.3 0l85.59 0q27.3 0 27.3 27.3l0 0q0 27.3-27.3 27.3l-85.59 0q-27.3 0-27.3-27.3l0 0q0-27.3 27.3-27.3Z" fill="#FFFFFF" p-id="1569"></path></svg>
