<svg t="1709274970833" class="icon" viewBox="0 0 1040 1024" version="1.1" xmlns="http://www.w3.org/2000/svg" p-id="7016"
     width="200" height="200">
    <path d="M1016.246154 512c0 278.449231-225.673846 504.123077-504.123077 504.123077S8 790.449231 8 512 233.673846 7.876923 512.123077 7.876923s504.123077 225.673846 504.123077 504.123077"
          fill="#9662F7" p-id="7017"></path>
    <path d="M534.808615 749.646769h-47.261538V452.923077c0-79.950769-58.289231-144.935385-129.969231-144.935385s-129.969231 65.063385-129.969231 144.935385v296.723692h-47.261538V452.923077c0-106.023385 79.478154-192.196923 177.230769-192.196923s177.230769 86.252308 177.230769 192.196923v296.723692z"
          fill="#9662F7" p-id="7018"></path>
    <path d="M298.422154 656.856615V454.577231c0-32.531692 26.466462-58.840615 59.076923-58.840616 32.610462 0 59.076923 26.387692 59.076923 58.840616v202.200615h-118.153846z"
          fill="#FFFFFF" p-id="7019"></path>
    <path d="M647.291077 551.857231h-152.024615v-47.261539h142.25723l178.097231-178.09723 33.398154 33.398153-185.028923 185.028923c-4.411077 4.489846-10.476308 6.931692-16.699077 6.931693z"
          fill="#FFFFFF" p-id="7020"></path>
    <path d="M689.432615 664.024615H495.266462v-47.261538h184.004923l169.038769-178.097231 34.264615 32.531692-175.970461 185.501539c-4.489846 4.647385-10.712615 7.325538-17.171693 7.325538z"
          fill="#9662F7" p-id="7021"></path>
</svg>
