<svg t="1705395073631" class="icon" viewBox="0 0 1080 1024" version="1.1" xmlns="http://www.w3.org/2000/svg"
     p-id="37504" width="200" height="200">
    <path fill="#ffffff" d="M0 56.908405A56.908405 56.908405 0 0 1 56.908405 0h642.800158a56.908405 56.908405 0 0 1 0 113.762766H56.908405A56.908405 56.908405 0 0 1 0 56.908405z m0 455.105106a56.908405 56.908405 0 0 1 56.908405-56.908405h967.064573a56.908405 56.908405 0 0 1 0 113.762766H56.908405A56.908405 56.908405 0 0 1 0 511.959467z m0 455.105106a56.908405 56.908405 0 0 1 56.908405-56.908405h642.800158a56.908405 56.908405 0 1 1 0 113.762766H56.908405A56.908405 56.908405 0 0 1 0 967.064573z"
          p-id="37505"></path>
</svg>
