<svg t="1707567689422" class="icon" viewBox="0 0 1024 1024" version="1.1" xmlns="http://www.w3.org/2000/svg" p-id="4760" width="200" height="200"><path d="M1024 512c0 282.752-229.248 512-512 512S0 794.752 0 512 229.248 0 512 0s512 229.248 512 512z" p-id="4761" fill="#d4237a"></path><path d="M512 512a170.666667 170.666667 0 1 1 0-341.333333 170.666667 170.666667 0 0 1 0 341.333333zM213.461333 687.786667a349.696 349.696 0 0 0 298.666667 165.546666 349.696 349.696 0 0 0 298.666667-165.546666A383.146667 383.146667 0 0 0 520.106667 554.666667h-15.914667a383.146667 383.146667 0 0 0-290.730667 133.12z" p-id="4762" fill="#d4237a"></path></svg>
